<?xml version="1.0" encoding="utf-8"?>
<!-- Generator: Adobe Illustrator 19.2.1, SVG Export Plug-In . SVG Version: 6.00 Build 0)  -->
<svg version="1.1" id="layer" xmlns="http://www.w3.org/2000/svg" xmlns:xlink="http://www.w3.org/1999/xlink" x="0px" y="0px"
	 viewBox="0 0 652 652" style="enable-background:new 0 0 652 652;" xml:space="preserve">
<style type="text/css">
	.st0{fill:#0859A8;}
</style>
<path class="st0" d="M590.4,283.4L573.6,331h-0.4l-4.8-47.6h-37.5l-27.4,77.3h31.4l16.9-47.7h0.4l5.5,47.7h36.8l27.4-77.3H590.4z
	 M466.4,332h-18.8l20.8-32.8h0.4L466.4,332z M453.2,283.4l-58.8,77.3h35.7l8.2-13.5H465l-1.4,13.5h35.7l-4-77.3H453.2z M404.4,338.4
	c10-28.2-47.5-20.8-42.1-36c1.2-3.5,5.7-6.8,12.9-6.8c6.5,0,8.2,3.8,6.6,8.3l-0.6,1.9h31.4c5.9-16.6-4-23.8-33.2-23.8
	c-28.3,0-45.2,8.5-50.8,24.1c-9.7,27.4,45.7,19.8,40.3,35.1c-1.5,4.2-6.6,7.5-13.5,7.5c-6.5,0-10.2-2.4-7.8-9l0.6-1.8h-32.5
	l-0.9,2.7c-5.7,16,7.8,21.8,35.6,21.8C379.9,362.2,398.6,354.8,404.4,338.4 M284.2,322c-7.4,20.9-10.5,26.5-20.8,26.5
	c-10.3,0-9.4-5.6-2-26.5c7.4-20.9,10.5-26.5,20.8-26.5C292.5,295.5,291.6,301.1,284.2,322 M287,281.9c-34.3,0-50,11.3-60.2,40.2
	c-10.2,28.9-2.5,40.2,31.8,40.2s50-11.3,60.2-40.2C329,293.1,321.3,281.9,287,281.9 M187.2,322c-7.4,20.9-10.5,26.5-20.8,26.5
	c-10.3,0-9.4-5.6-2-26.5c7.4-20.9,10.5-26.5,20.8-26.5C195.5,295.5,194.6,301.1,187.2,322 M190,281.9c-34.3,0-50,11.3-60.2,40.2
	c-10.2,28.9-2.5,40.2,31.8,40.2c34.3,0,50-11.3,60.2-40.2C232,293.1,224.3,281.9,190,281.9 M90.3,322c-7.4,20.9-10.2,24.1-23.2,24.1
	h-6.7l17.1-48.3h6.7C97.3,297.9,97.7,301.1,90.3,322 M97.9,283.4H49.2l-27.4,77.3h48.7c38.8,0,47.3-18.4,54.5-38.6
	C132.1,301.8,136.7,283.4,97.9,283.4"/>
</svg>
