<svg xmlns="http://www.w3.org/2000/svg" xmlns:xlink="http://www.w3.org/1999/xlink" width="2048" zoomAndPan="magnify" viewBox="0 0 1536 269.999989" height="360" preserveAspectRatio="xMidYMid meet" version="1.0"><defs><filter x="0%" y="0%" width="100%" height="100%" id="aa8d6de847"><feColorMatrix values="0 0 0 0 1 0 0 0 0 1 0 0 0 0 1 0 0 0 1 0" color-interpolation-filters="sRGB"/></filter><mask id="aa8991d913"><g filter="url(#aa8d6de847)"><rect x="-153.6" width="1843.2" fill="#000000" y="-26.999999" height="323.999987" fill-opacity="0.05"/></g></mask><clipPath id="7437e81cf3"><path d="M 0 4 L 1536 4 L 1536 270 L 0 270 Z M 0 4 " clip-rule="nonzero"/></clipPath><clipPath id="950d19b5d4"><path d="M 0 0 L 1536 0 L 1536 264 L 0 264 Z M 0 0 " clip-rule="nonzero"/></clipPath><clipPath id="995e5a7be3"><path d="M 0 0 L 1153 0 L 1153 141 L 0 141 Z M 0 0 " clip-rule="nonzero"/></clipPath><clipPath id="7b0115de82"><path d="M 0 213 L 555 213 L 555 270 L 0 270 Z M 0 213 " clip-rule="nonzero"/></clipPath><clipPath id="321258ffcf"><rect x="0" width="1536" y="0" height="270"/></clipPath><mask id="4d1b48fe44"><g filter="url(#aa8d6de847)"><rect x="-153.6" width="1843.2" fill="#000000" y="-26.999999" height="323.999987" fill-opacity="0.1"/></g></mask><clipPath id="88a49f431b"><path d="M 0.078125 0 L 376.578125 0 L 376.578125 199.824219 L 0.078125 199.824219 Z M 0.078125 0 " clip-rule="nonzero"/></clipPath><clipPath id="a63d742bf9"><rect x="0" width="378" y="0" height="201"/></clipPath><mask id="a00b39eb2f"><g filter="url(#aa8d6de847)"><rect x="-153.6" width="1843.2" fill="#000000" y="-26.999999" height="323.999987" fill-opacity="0.1"/></g></mask><clipPath id="2aff38bd06"><path d="M 0.164062 0.886719 L 376.664062 0.886719 L 376.664062 193 L 0.164062 193 Z M 0.164062 0.886719 " clip-rule="nonzero"/></clipPath><clipPath id="6289fc8f4f"><rect x="0" width="378" y="0" height="193"/></clipPath><clipPath id="4e94c4fb9f"><path d="M 0 0 L 638.78125 0 L 638.78125 76 L 0 76 Z M 0 0 " clip-rule="nonzero"/></clipPath></defs><rect x="-153.6" width="1843.2" fill="#ffffff" y="-26.999999" height="323.999987" fill-opacity="1"/><rect x="-153.6" width="1843.2" fill="#00083d" y="-26.999999" height="323.999987" fill-opacity="1"/><g mask="url(#aa8991d913)"><g transform="matrix(1, 0, 0, 1, 0, 0)"><g clip-path="url(#321258ffcf)"><g clip-path="url(#7437e81cf3)"><path fill="#004aad" d="M -39.34375 108.683594 L -39.34375 318.265625 C -39.34375 318.265625 273.003906 445.585938 595.28125 353.796875 C 917.558594 262.007812 1089.765625 93.480469 1376.980469 211.671875 C 1664.195312 329.859375 1773.75 90.269531 1773.75 90.269531 C 1773.75 90.269531 1570.257812 239.273438 1430.277344 93.230469 C 1290.296875 -52.8125 1161.945312 -1.488281 708.921875 125.800781 C 255.894531 253.089844 309.078125 150.785156 -39.34375 108.683594 Z M -39.34375 108.683594 " fill-opacity="1" fill-rule="nonzero"/></g><g clip-path="url(#950d19b5d4)"><path fill="#5271ff" d="M -39.34375 4.65625 L -39.34375 202.324219 C -39.34375 202.324219 307.273438 361.65625 819.054688 165.328125 C 1330.835938 -31 1561.589844 48.941406 1561.589844 48.941406 C 1561.589844 48.941406 1303.4375 -131.105469 802.335938 18.765625 C 334.726562 158.625 -39.34375 4.65625 -39.34375 4.65625 Z M -39.34375 4.65625 " fill-opacity="1" fill-rule="nonzero"/></g><g clip-path="url(#995e5a7be3)"><path fill="#16006f" d="M -39.34375 63.941406 L -39.34375 -45.613281 C -39.34375 -45.613281 163.695312 -251.285156 410.238281 -24.621094 C 656.78125 202.046875 1152.988281 95.851562 1152.988281 95.851562 C 1152.988281 95.851562 681.089844 217.914062 379.125 58.019531 C 77.160156 -101.875 -39.34375 63.941406 -39.34375 63.941406 Z M -39.34375 63.941406 " fill-opacity="1" fill-rule="nonzero"/></g><g clip-path="url(#7b0115de82)"><path fill="#16006f" d="M -39.34375 213.476562 C -39.34375 213.476562 172.855469 319.226562 554.324219 251.960938 C 554.324219 251.960938 195.082031 334.03125 -39.34375 251.960938 Z M -39.34375 213.476562 " fill-opacity="1" fill-rule="nonzero"/></g><path fill="#16006f" d="M 692.085938 156.765625 C 692.085938 156.765625 848.734375 184.832031 1064.65625 139.339844 C 1064.65625 139.339844 788.316406 164.167969 692.085938 156.765625 Z M 692.085938 156.765625 " fill-opacity="1" fill-rule="nonzero"/></g></g></g><g mask="url(#4d1b48fe44)"><g transform="matrix(1, 0, 0, 1, 467, 0)"><g clip-path="url(#a63d742bf9)"><g clip-path="url(#88a49f431b)"><path fill="#ffffff" d="M 321.253906 -79.070312 L 269.667969 -108.851562 L 269.667969 -49.285156 Z M 321.902344 33.3125 L 269.671875 3.15625 L 269.671875 13.273438 L 321.902344 43.429688 Z M 269.671875 0.164062 L 321.902344 30.320312 L 321.902344 20.949219 L 269.671875 -9.203125 Z M 321.902344 8.589844 L 269.671875 -21.566406 L 269.671875 -12.195312 L 321.902344 17.957031 Z M 321.902344 -3.773438 L 269.671875 -33.929688 L 269.671875 -24.558594 L 321.902344 5.597656 Z M 321.902344 -16.886719 C 304.488281 -26.921875 287.078125 -36.992188 269.671875 -47.042969 L 269.671875 -36.917969 L 321.902344 -6.765625 Z M 295.785156 -157.078125 C 304.929688 -151.8125 314.066406 -146.535156 323.199219 -141.253906 L 323.199219 -108.851562 L 267.726562 -140.878906 Z M 295.785156 -126.175781 L 321.257812 -140.878906 L 295.785156 -155.585938 L 270.316406 -140.878906 Z M 321.902344 -139.757812 L 297.078125 -125.425781 L 321.902344 -111.097656 Z M 107.78125 -53.21875 L 55.550781 -83.375 L 55.550781 -74.007812 L 107.78125 -43.851562 Z M 107.78125 -65.582031 L 55.550781 -95.738281 L 55.550781 -86.367188 L 107.78125 -56.214844 Z M 107.78125 -77.945312 L 55.550781 -108.101562 L 55.550781 -98.730469 L 107.78125 -68.574219 Z M 117.195312 -84.875 L 64.957031 -115.03125 L 56.84375 -110.351562 L 109.082031 -80.191406 Z M 127.898438 -91.054688 L 75.664062 -121.214844 L 67.550781 -116.53125 L 119.785156 -86.371094 Z M 160.667969 -109.972656 L 108.429688 -140.132812 L 99.667969 -135.074219 L 151.90625 -104.914062 Z M 109.082031 -42.726562 L 130.164062 -30.554688 L 138.925781 -35.613281 L 109.082031 -52.84375 Z M 117.515625 -23.25 L 109.082031 -28.121094 L 109.082031 -18.382812 Z M 109.082031 -30.367188 L 119.460938 -24.375 L 128.222656 -29.433594 L 109.082031 -40.484375 Z M 214.839844 -29.246094 L 162.609375 -59.402344 L 162.609375 -48.539062 L 214.839844 -18.378906 Z M 214.839844 -41.609375 L 162.609375 -71.761719 L 162.609375 -60.898438 L 214.839844 -30.742188 Z M 214.839844 -53.96875 L 162.609375 -84.125 L 162.609375 -73.257812 L 214.839844 -43.105469 Z M 131.125 -29.625 L 183.371094 0.539062 L 192.78125 -4.894531 L 140.535156 -35.058594 Z M 171.371094 7.46875 L 119.128906 -22.695312 L 109.726562 -17.257812 L 161.964844 12.898438 Z M 120.425781 -23.441406 L 172.667969 6.71875 L 182.074219 1.289062 L 129.828125 -28.878906 Z M 107.78125 -28.496094 L 55.550781 -58.652344 L 55.550781 -48.535156 L 107.78125 -18.382812 Z M 55.550781 -61.644531 L 107.78125 -31.492188 L 107.78125 -40.859375 L 55.550781 -71.015625 Z M 138.605469 -97.234375 L 86.371094 -127.394531 L 78.253906 -122.710938 L 130.492188 -92.554688 Z M 88.960938 -128.890625 L 141.195312 -98.734375 L 149.3125 -103.417969 L 97.078125 -133.578125 Z M 149.632812 -41.792969 L 109.082031 -65.207031 L 109.082031 -55.089844 L 140.871094 -36.734375 Z M 109.082031 -67.449219 L 151.578125 -42.914062 L 160.339844 -47.976562 L 109.082031 -77.570312 Z M 161.3125 -84.5 L 140.222656 -96.675781 L 131.460938 -91.617188 L 161.3125 -74.382812 Z M 152.867188 -103.976562 L 161.3125 -99.105469 L 161.3125 -108.851562 Z M 161.3125 -96.863281 L 150.929688 -102.859375 L 142.167969 -97.796875 L 161.3125 -86.746094 Z M 120.753906 -85.4375 L 161.3125 -62.019531 L 161.3125 -72.136719 L 129.515625 -90.496094 Z M 161.3125 -59.78125 L 118.8125 -84.316406 L 110.050781 -79.257812 L 161.3125 -49.660156 Z M 203.488281 -11.074219 L 151.242188 -41.238281 L 141.828125 -35.804688 L 194.078125 -5.640625 Z M 152.539062 -41.984375 L 204.78125 -11.824219 L 214.195312 -17.257812 L 161.960938 -47.417969 Z M 214.839844 -66.328125 L 162.609375 -96.484375 L 162.609375 -85.621094 L 214.839844 -55.464844 Z M 162.609375 -97.984375 L 214.839844 -67.828125 L 214.839844 -78.699219 L 162.609375 -108.851562 Z M 163.253906 -109.972656 L 215.492188 -79.816406 L 267.726562 -109.972656 L 215.492188 -140.132812 Z M 28.785156 28.726562 C 28.785156 39.277344 28.769531 49.828125 28.785156 60.378906 L 0.730469 76.574219 C 0.71875 55.226562 0.726562 33.878906 0.726562 12.527344 Z M 26.847656 60.003906 L 2.023438 45.671875 L 2.023438 74.335938 Z M 2.023438 44.179688 L 27.492188 58.886719 L 27.492188 29.472656 L 2.019531 14.765625 Z M 28.785156 -95.640625 L 28.785156 -62.492188 L 0.078125 -79.070312 Z M 27.488281 -93.398438 L 2.667969 -79.070312 L 27.488281 -64.738281 Z M 161.960938 -172.53125 C 171.320312 -167.140625 180.667969 -161.734375 190.019531 -156.332031 C 180.667969 -150.929688 171.308594 -145.539062 161.960938 -140.132812 C 152.613281 -145.539062 143.253906 -150.929688 133.902344 -156.332031 Z M 161.960938 -171.035156 L 136.492188 -156.332031 L 161.960938 -141.625 L 187.429688 -156.332031 Z M 161.3125 14.019531 L 109.082031 -16.136719 L 109.082031 44.179688 L 161.3125 74.332031 Z M 214.84375 105.242188 L 214.847656 44.179688 L 267.726562 13.644531 L 215.488281 -16.511719 C 197.847656 -6.359375 180.242188 3.855469 162.609375 14.019531 L 162.609375 75.085938 Z M 216.140625 57.667969 L 216.140625 67.785156 L 268.371094 37.625 L 268.371094 27.507812 Z M 268.371094 14.769531 L 216.140625 44.925781 L 216.140625 55.421875 L 268.371094 25.265625 Z M 216.140625 80.144531 L 268.371094 49.988281 L 268.371094 39.871094 L 216.140625 70.027344 Z M 216.140625 92.507812 L 268.371094 62.351562 L 268.371094 52.234375 L 216.140625 82.390625 Z M 268.371094 64.59375 L 216.136719 94.753906 L 216.136719 105.242188 L 268.371094 75.085938 Z M 99.019531 -11.078125 L 99.019531 49.238281 L 107.789062 44.179688 L 107.785156 -16.136719 Z M 88.3125 -4.894531 L 88.3125 55.421875 L 96.433594 50.730469 L 96.429688 -9.582031 Z M 77.605469 1.285156 L 77.605469 61.601562 L 85.726562 56.914062 L 85.726562 -3.402344 Z M 66.902344 7.464844 L 66.902344 67.785156 L 75.019531 63.097656 L 75.019531 2.78125 Z M 55.550781 74.335938 L 64.316406 69.277344 L 64.3125 8.960938 L 55.550781 14.019531 Z M 117.519531 100.371094 L 65.285156 70.210938 L 56.199219 75.457031 L 108.433594 105.613281 Z M 67.230469 69.089844 L 119.460938 99.246094 L 128.222656 94.1875 L 75.988281 64.03125 Z M 99.347656 50.546875 L 151.578125 80.703125 L 160.664062 75.457031 L 108.433594 45.300781 Z M 138.929688 88.007812 L 86.695312 57.847656 L 77.933594 62.910156 L 130.167969 93.066406 Z M 88.640625 56.730469 L 140.871094 86.886719 L 149.636719 81.824219 L 97.402344 51.667969 Z M 80.375 121.8125 L 55.550781 107.484375 L 55.550781 136.144531 Z M 82.964844 121.816406 L 54.253906 138.390625 L 54.253906 105.242188 Z M 267.726562 137.265625 L 216.136719 107.480469 L 216.140625 167.050781 Z M 119.136719 173.605469 L 171.371094 143.445312 L 161.960938 138.015625 L 109.726562 168.171875 Z M 151.257812 192.148438 L 203.496094 161.992188 L 194.082031 156.558594 L 141.847656 186.71875 Z M 204.789062 162.738281 L 152.550781 192.898438 L 161.964844 198.332031 L 214.199219 168.171875 Z M 129.847656 179.789062 L 182.082031 149.628906 L 172.667969 144.195312 L 120.433594 174.355469 Z M 183.375 150.378906 L 131.140625 180.535156 L 140.550781 185.96875 L 192.785156 155.8125 Z M 268.375 -108.851562 L 216.140625 -78.699219 L 216.140625 -17.632812 L 268.371094 12.523438 C 268.371094 -27.9375 268.375 -68.390625 268.375 -108.851562 Z M 216.785156 106.363281 L 270.316406 137.269531 C 234.203125 158.128906 198.09375 178.992188 161.964844 199.824219 C 143.683594 189.285156 125.414062 178.726562 107.140625 168.171875 C 125.410156 157.617188 143.699219 147.085938 161.960938 136.523438 L 214.847656 167.050781 C 214.847656 146.945312 214.855469 126.84375 214.84375 106.738281 C 197.207031 96.578125 179.582031 86.390625 161.960938 76.203125 L 108.433594 107.109375 C 90.355469 96.71875 72.304688 86.265625 54.253906 75.828125 L 54.253906 14.015625 L 0.0820312 -17.257812 L 54.253906 -48.535156 L 54.253906 -110.34375 C 72.3125 -120.773438 90.355469 -131.230469 108.433594 -141.625 L 161.964844 -110.722656 L 215.488281 -141.625 C 251.636719 -120.824219 287.726562 -99.917969 323.84375 -79.070312 L 270.316406 -48.164062 L 322.550781 -18.003906 L 376.726562 -49.28125 C 376.726562 -27.933594 376.738281 -6.582031 376.722656 14.769531 C 358.882812 4.46875 341.046875 -5.84375 323.199219 -16.136719 L 323.199219 45.675781 C 305.355469 35.375 287.507812 25.082031 269.667969 14.769531 L 269.667969 75.828125 C 252.046875 86.015625 234.425781 96.203125 216.785156 106.363281 Z M 107.140625 -17.257812 L 54.902344 -47.417969 L 2.667969 -17.257812 L 54.902344 12.898438 C 72.316406 2.847656 89.726562 -7.207031 107.140625 -17.257812 Z M 375.433594 -47.042969 L 323.84375 -17.257812 L 375.433594 12.527344 L 375.433594 -47.042969 " fill-opacity="1" fill-rule="nonzero"/></g></g></g></g><g mask="url(#a00b39eb2f)"><g transform="matrix(1, 0, 0, 1, 813, 77)"><g clip-path="url(#6289fc8f4f)"><g clip-path="url(#2aff38bd06)"><path fill="#ffffff" d="M 321.339844 94.351562 L 269.753906 64.566406 L 269.753906 124.132812 Z M 321.988281 206.734375 L 269.757812 176.578125 L 269.757812 186.691406 L 321.988281 216.851562 Z M 269.757812 173.582031 L 321.988281 203.738281 L 321.988281 194.371094 L 269.757812 164.214844 Z M 321.988281 182.007812 L 269.757812 151.855469 L 269.757812 161.226562 L 321.988281 191.378906 Z M 321.988281 169.648438 L 269.757812 139.492188 L 269.757812 148.863281 L 321.988281 179.015625 Z M 321.988281 156.535156 C 304.574219 146.496094 287.164062 136.429688 269.757812 126.378906 L 269.757812 136.5 L 321.988281 166.652344 Z M 295.871094 16.339844 C 305.015625 21.605469 314.152344 26.886719 323.285156 32.167969 L 323.285156 64.566406 L 267.8125 32.539062 Z M 295.871094 47.246094 L 321.34375 32.539062 L 295.871094 17.835938 L 270.402344 32.539062 Z M 321.988281 33.660156 L 297.164062 47.992188 L 321.988281 62.324219 Z M 107.867188 120.199219 L 55.636719 90.042969 L 55.636719 99.414062 L 107.867188 129.566406 Z M 107.867188 107.835938 L 55.636719 77.679688 L 55.636719 87.050781 L 107.867188 117.203125 Z M 107.867188 95.472656 L 55.636719 65.316406 L 55.636719 74.6875 L 107.867188 104.84375 Z M 117.28125 88.546875 L 65.042969 58.386719 L 56.929688 63.070312 L 109.167969 93.230469 Z M 127.984375 82.363281 L 75.75 52.207031 L 67.636719 56.890625 L 119.871094 87.046875 Z M 160.753906 63.445312 L 108.515625 33.289062 L 99.753906 38.347656 L 151.992188 68.503906 Z M 109.167969 130.691406 L 130.25 142.867188 L 139.011719 137.804688 L 109.167969 120.574219 Z M 117.601562 150.167969 L 109.167969 145.296875 L 109.167969 155.039062 Z M 109.167969 143.050781 L 119.546875 149.046875 L 128.308594 143.988281 L 109.167969 132.9375 Z M 214.925781 144.171875 L 162.695312 114.019531 L 162.695312 124.882812 L 214.925781 155.039062 Z M 214.925781 131.8125 L 162.695312 101.65625 L 162.695312 112.523438 L 214.925781 142.675781 Z M 214.925781 119.449219 L 162.695312 89.292969 L 162.695312 100.160156 L 214.925781 130.316406 Z M 131.210938 143.792969 L 183.457031 173.957031 L 192.867188 168.527344 L 140.621094 138.359375 Z M 171.457031 180.886719 L 119.214844 150.726562 L 109.8125 156.160156 L 162.050781 186.320312 Z M 120.511719 149.976562 L 172.753906 180.140625 L 182.160156 174.707031 L 129.914062 144.542969 Z M 107.867188 144.921875 L 55.636719 114.765625 L 55.636719 124.886719 L 107.867188 155.039062 Z M 55.636719 111.773438 L 107.867188 141.929688 L 107.867188 132.5625 L 55.636719 102.40625 Z M 138.691406 76.183594 L 86.457031 46.023438 L 78.339844 50.710938 L 130.578125 80.867188 Z M 89.046875 44.527344 L 141.28125 74.6875 L 149.398438 70 L 97.164062 39.84375 Z M 149.71875 131.625 L 109.167969 108.210938 L 109.167969 118.332031 L 140.957031 136.683594 Z M 109.167969 105.96875 L 151.664062 130.503906 L 160.425781 125.441406 L 109.167969 95.847656 Z M 161.398438 88.917969 L 140.308594 76.742188 L 131.546875 81.800781 L 161.398438 99.035156 Z M 152.953125 69.441406 L 161.398438 74.316406 L 161.398438 64.566406 Z M 161.398438 76.554688 L 151.015625 70.5625 L 142.253906 75.621094 L 161.398438 86.675781 Z M 120.839844 87.984375 L 161.398438 111.398438 L 161.398438 101.28125 L 129.601562 82.921875 Z M 161.398438 113.640625 L 118.898438 89.101562 L 110.136719 94.164062 L 161.398438 123.757812 Z M 203.574219 162.34375 L 151.328125 132.179688 L 141.914062 137.613281 L 194.164062 167.777344 Z M 152.625 131.433594 L 204.867188 161.597656 L 214.28125 156.164062 L 162.046875 126.003906 Z M 214.925781 107.089844 L 162.695312 76.933594 L 162.695312 87.796875 L 214.925781 117.953125 Z M 162.695312 75.4375 L 214.925781 105.59375 L 214.925781 94.722656 L 162.695312 64.566406 Z M 163.339844 63.445312 L 215.578125 93.605469 L 267.8125 63.445312 L 215.578125 33.289062 Z M 28.871094 202.144531 C 28.871094 212.695312 28.855469 223.246094 28.871094 233.796875 L 0.816406 249.996094 C 0.804688 228.648438 0.8125 207.296875 0.8125 185.945312 Z M 26.933594 233.421875 L 2.109375 219.089844 L 2.109375 247.753906 Z M 2.109375 217.597656 L 27.578125 232.304688 L 27.578125 202.890625 L 2.105469 188.1875 Z M 28.871094 77.777344 L 28.871094 110.925781 L 0.164062 94.351562 Z M 27.574219 80.019531 L 2.753906 94.351562 L 27.574219 108.679688 Z M 162.046875 0.886719 C 171.40625 6.277344 180.753906 11.6875 190.105469 17.089844 C 180.753906 22.488281 171.394531 27.878906 162.046875 33.289062 C 152.699219 27.878906 143.339844 22.488281 133.988281 17.089844 Z M 162.046875 2.386719 L 136.578125 17.089844 L 162.046875 31.792969 L 187.515625 17.089844 Z M 161.398438 187.441406 L 109.167969 157.28125 L 109.167969 217.597656 L 161.398438 247.753906 Z M 214.929688 278.664062 L 214.933594 217.597656 L 267.8125 187.066406 L 215.574219 156.90625 C 197.933594 167.058594 180.328125 177.273438 162.695312 187.4375 L 162.695312 248.503906 Z M 216.226562 231.085938 L 216.226562 241.203125 L 268.457031 211.046875 L 268.457031 200.929688 Z M 268.457031 188.1875 L 216.226562 218.347656 L 216.226562 228.839844 L 268.457031 198.683594 Z M 216.226562 253.5625 L 268.457031 223.40625 L 268.457031 213.289062 L 216.226562 243.449219 Z M 216.226562 265.925781 L 268.457031 235.769531 L 268.457031 225.652344 L 216.226562 255.808594 Z M 268.457031 238.011719 L 216.222656 268.171875 L 216.222656 278.664062 L 268.457031 248.503906 Z M 99.105469 162.34375 L 99.105469 222.65625 L 107.875 217.597656 L 107.871094 157.28125 Z M 88.398438 168.523438 L 88.398438 228.839844 L 96.519531 224.152344 L 96.515625 163.835938 Z M 77.691406 174.703125 L 77.691406 235.023438 L 85.8125 230.335938 L 85.8125 170.015625 Z M 66.988281 180.886719 L 66.988281 241.203125 L 75.105469 236.515625 L 75.105469 176.199219 Z M 55.636719 247.753906 L 64.402344 242.695312 L 64.398438 182.378906 L 55.636719 187.4375 Z M 117.605469 273.789062 L 65.371094 243.632812 L 56.285156 248.878906 L 108.519531 279.035156 Z M 67.316406 242.507812 L 119.546875 272.667969 L 128.308594 267.609375 L 76.074219 237.453125 Z M 99.433594 223.964844 L 151.664062 254.121094 L 160.75 248.878906 L 108.519531 218.71875 Z M 139.015625 261.425781 L 86.78125 231.269531 L 78.019531 236.328125 L 130.253906 266.484375 Z M 88.726562 230.148438 L 140.957031 260.304688 L 149.722656 255.242188 L 97.488281 225.085938 Z M 80.460938 295.234375 L 55.636719 280.90625 L 55.636719 309.566406 Z M 83.050781 295.234375 L 54.339844 311.8125 L 54.339844 278.664062 Z M 267.8125 310.683594 L 216.222656 280.902344 L 216.226562 340.46875 Z M 119.222656 347.027344 L 171.457031 316.867188 L 162.046875 311.433594 L 109.8125 341.59375 Z M 151.34375 365.570312 L 203.582031 335.410156 L 194.167969 329.976562 L 141.933594 360.136719 Z M 204.875 336.160156 L 152.636719 366.316406 L 162.050781 371.75 L 214.285156 341.59375 Z M 129.933594 353.207031 L 182.167969 323.050781 L 172.753906 317.613281 L 120.519531 347.773438 Z M 183.460938 323.796875 L 131.226562 353.957031 L 140.636719 359.390625 L 192.871094 329.230469 Z M 268.460938 64.566406 L 216.226562 94.722656 L 216.226562 155.789062 L 268.457031 185.945312 C 268.457031 145.480469 268.460938 105.027344 268.460938 64.566406 Z M 216.871094 279.785156 L 270.402344 310.6875 C 234.289062 331.546875 198.179688 352.410156 162.050781 373.242188 C 143.769531 362.703125 125.5 352.148438 107.226562 341.59375 C 125.496094 331.039062 143.785156 320.507812 162.046875 309.941406 L 214.933594 340.472656 C 214.933594 320.367188 214.941406 300.261719 214.929688 280.15625 C 197.292969 269.996094 179.667969 259.808594 162.046875 249.625 L 108.519531 280.53125 C 90.441406 270.136719 72.390625 259.683594 54.339844 249.25 L 54.339844 187.4375 L 0.167969 156.160156 L 54.339844 124.886719 L 54.339844 63.074219 C 72.398438 52.644531 90.441406 42.1875 108.519531 31.792969 L 162.050781 62.699219 L 215.574219 31.792969 C 251.722656 52.597656 287.8125 73.5 323.929688 94.351562 L 270.402344 125.257812 L 322.636719 155.414062 L 376.8125 124.136719 C 376.8125 145.488281 376.824219 166.835938 376.808594 188.1875 C 358.96875 177.886719 341.132812 167.578125 323.285156 157.28125 L 323.285156 219.09375 C 305.441406 208.792969 287.59375 198.5 269.753906 188.1875 L 269.753906 249.25 C 252.132812 259.433594 234.511719 269.625 216.871094 279.785156 Z M 107.226562 156.160156 L 54.988281 126.003906 L 2.753906 156.160156 L 54.988281 186.320312 C 72.402344 176.265625 89.8125 166.214844 107.226562 156.160156 Z M 375.519531 126.375 L 323.929688 156.160156 L 375.519531 185.945312 L 375.519531 126.375 " fill-opacity="1" fill-rule="nonzero"/></g></g></g></g><g clip-path="url(#4e94c4fb9f)"><path fill="#004aad" d="M -26.71875 -26.390625 L -26.71875 50.488281 C -26.71875 50.488281 87.859375 97.195312 206.082031 63.523438 C 324.304688 29.851562 387.472656 -31.96875 492.835938 11.386719 C 598.195312 54.742188 638.382812 -33.148438 638.382812 -33.148438 C 638.382812 -33.148438 563.734375 21.511719 512.386719 -32.058594 C 461.035156 -85.632812 413.953125 -66.804688 247.769531 -20.113281 C 81.582031 26.582031 101.09375 -10.945312 -26.71875 -26.390625 Z M -26.71875 -26.390625 " fill-opacity="1" fill-rule="nonzero"/></g><path fill="#5271ff" d="M -26.71875 -64.554688 L -26.71875 7.957031 C -26.71875 7.957031 100.429688 66.40625 288.167969 -5.613281 C 475.90625 -77.632812 560.554688 -48.308594 560.554688 -48.308594 C 560.554688 -48.308594 465.855469 -114.355469 282.035156 -59.375 C 110.5 -8.074219 -26.71875 -64.554688 -26.71875 -64.554688 Z M -26.71875 -64.554688 " fill-opacity="1" fill-rule="nonzero"/><path fill="#16006f" d="M -26.71875 12.050781 C -26.71875 12.050781 51.121094 50.84375 191.058594 26.167969 C 191.058594 26.167969 59.273438 56.273438 -26.71875 26.167969 Z M -26.71875 12.050781 " fill-opacity="1" fill-rule="nonzero"/><path fill="#004aad" d="M 1657.472656 274.917969 L 1657.472656 364.851562 C 1657.472656 364.851562 1523.4375 419.492188 1385.140625 380.101562 C 1246.84375 340.710938 1172.945312 268.394531 1049.695312 319.109375 C 926.445312 369.828125 879.429688 267.015625 879.429688 267.015625 C 879.429688 267.015625 966.753906 330.957031 1026.824219 268.285156 C 1086.890625 205.617188 1141.972656 227.640625 1336.375 282.261719 C 1530.777344 336.886719 1507.957031 292.984375 1657.472656 274.917969 Z M 1657.472656 274.917969 " fill-opacity="1" fill-rule="nonzero"/><path fill="#5271ff" d="M 1657.472656 230.277344 L 1657.472656 315.097656 C 1657.472656 315.097656 1508.730469 383.472656 1289.113281 299.222656 C 1069.496094 214.976562 970.472656 249.28125 970.472656 249.28125 C 970.472656 249.28125 1081.253906 172.015625 1296.289062 236.332031 C 1496.949219 296.347656 1657.472656 230.277344 1657.472656 230.277344 Z M 1657.472656 230.277344 " fill-opacity="1" fill-rule="nonzero"/><path fill="#16006f" d="M 1657.472656 255.71875 L 1657.472656 208.703125 C 1657.472656 208.703125 1570.34375 120.445312 1464.546875 217.714844 C 1358.75 314.980469 1145.816406 269.410156 1145.816406 269.410156 C 1145.816406 269.410156 1348.316406 321.789062 1477.898438 253.175781 C 1607.480469 184.5625 1657.472656 255.71875 1657.472656 255.71875 Z M 1657.472656 255.71875 " fill-opacity="1" fill-rule="nonzero"/></svg>